HIERARCHY
ROOT SpineBase
{
  OFFSET 0.000000 0.000000 0.000000
  CHANNELS 6 Xposition Yposition Zposition Zrotation Xrotation Yrotation
  JOINT SpineMid
  {
    OFFSET 0.000000 31.276461 0.000000
    CHANNELS 3 Zrotation Xrotation Yrotation
    JOINT SpineShoulder
    {
      OFFSET 0.359844 23.205425 -0.838225
      CHANNELS 3 Zrotation Xrotation Yrotation
      JOINT Neck
      {
        OFFSET 0.234330 7.684573 -0.641635
        CHANNELS 3 Zrotation Xrotation Yrotation
        JOINT Head
        {
          OFFSET 3.972712 13.560642 -0.466762
          CHANNELS 3 Zrotation Xrotation Yrotation
          End Site
          {
            OFFSET 0 0 0
          }
        }
      }
      JOINT ShoulderLeft
      {
        OFFSET -13.572924 -1.263734 -11.283155
        CHANNELS 3 Zrotation Xrotation Yrotation
        JOINT ElbowLeft
        {
          OFFSET -6.280727 -23.406121 -2.914087
          CHANNELS 3 Zrotation Xrotation Yrotation
          JOINT WristLeft
          {
            OFFSET 3.650476 -19.573633 -2.690563
            CHANNELS 3 Zrotation Xrotation Yrotation
            JOINT HandLeft
            {
              OFFSET 2.994705 -5.395432 0.982219
              CHANNELS 3 Zrotation Xrotation Yrotation
              JOINT HandTipLeft
              {
                OFFSET 0.861782 -7.222352 -1.554308
                CHANNELS 3 Zrotation Xrotation Yrotation
                End Site
                {
                  OFFSET 0 0 0
                }
              }
              JOINT ThumbLeft
              {
                OFFSET -4.298465 -0.007254 0.044758
                CHANNELS 3 Zrotation Xrotation Yrotation
                End Site
                {
                  OFFSET 0 0 0
                }
              }
            }
          }
        }
      }
      JOINT ShoulderRight
      {
        OFFSET 15.405846 -4.104714 10.298452
        CHANNELS 3 Zrotation Xrotation Yrotation
        JOINT ElbowRight
        {
          OFFSET 1.397896 -26.767176 0.432460
          CHANNELS 3 Zrotation Xrotation Yrotation
          JOINT WristRight
          {
            OFFSET 0.839309 -17.515652 -8.048539
            CHANNELS 3 Zrotation Xrotation Yrotation
            JOINT HandRight
            {
              OFFSET 0.002081 -5.363967 -2.296128
              CHANNELS 3 Zrotation Xrotation Yrotation
              JOINT HandTipRight
              {
                OFFSET 1.002355 -6.519061 -3.580717
                CHANNELS 3 Zrotation Xrotation Yrotation
                End Site
                {
                  OFFSET 0 0 0
                }
              }
              JOINT ThumbRight
              {
                OFFSET 2.811413 -0.950171 0.910915
                CHANNELS 3 Zrotation Xrotation Yrotation
                End Site
                {
                  OFFSET 0 0 0
                }
              }
            }
          }
        }
      }
    }
  }
  JOINT HipLeft
  {
    OFFSET -5.116023 1.261798 -7.364981
    CHANNELS 3 Zrotation Xrotation Yrotation
    JOINT KneeLeft
    {
      OFFSET -8.134467 -31.509248 -0.728350
      CHANNELS 3 Zrotation Xrotation Yrotation
      JOINT AnkleLeft
      {
        OFFSET -6.053551 -35.790336 11.098158
        CHANNELS 3 Zrotation Xrotation Yrotation
        JOINT FootLeft
        {
          OFFSET 6.381667 -3.186417 -10.486633
          CHANNELS 3 Zrotation Xrotation Yrotation
          End Site
          {
            OFFSET 0 0 0
          }
        }
      }
    }
  }
  JOINT HipRight
  {
    OFFSET 7.305637 0.417919 0.473454
    CHANNELS 3 Zrotation Xrotation Yrotation
    JOINT KneeRight
    {
      OFFSET 0.497832 -34.256427 0.429848
      CHANNELS 3 Zrotation Xrotation Yrotation
      JOINT AnkleRight
      {
        OFFSET -4.981626 -33.355579 8.599470
        CHANNELS 3 Zrotation Xrotation Yrotation
        JOINT FootRight
        {
          OFFSET 6.171744 -3.173990 -10.551847
          CHANNELS 3 Zrotation Xrotation Yrotation
          End Site
          {
            OFFSET 0 0 0
          }
        }
      }
    }
  }
}
MOTION
Frames: 12
Frame Time: 0.033333
-97.718268 74.580938 324.591481 -2.481474 1.547123 -29.925863 0.185182 0.339036 29.862769 0.029709 0.303059 -0.128979 7.794715 4.320868 -1.526220 0.000000 0.000000 0.000000 0.945120 -1.367407 0.207217 -3.984518 2.109330 1.344999 -2.515627 4.076853 1.473376 20.801484 -5.782877 -3.142557 0.000000 0.000000 0.000000 0.000000 0.000000 0.000000 8.472642 7.187839 0.576528 -5.599123 -21.838582 -2.037761 -12.368164 -5.118146 7.396061 0.087584 -5.748375 -3.249750 0.000000 0.000000 0.000000 0.000000 0.000000 0.000000 1.808490 -3.255448 30.546870 -1.166510 3.830688 -1.908337 2.789910 -0.684176 6.398175 0.000000 0.000000 0.000000 -0.145918 -6.115115 29.670651 4.396678 5.348128 -0.530004 0.276820 -0.753160 5.535807 0.000000 0.000000 0.000000
-98.238090 74.733178 324.279022 -1.873545 1.906137 -30.743430 0.350915 0.642850 30.708942 0.161794 0.356553 -0.083981 7.168138 4.392628 -1.776451 0.000000 0.000000 0.000000 0.188620 -1.280746 -0.085987 -3.437971 1.506762 1.403496 -3.664878 5.489395 2.472608 20.280624 -7.460146 -3.403875 0.000000 0.000000 0.000000 0.000000 0.000000 0.000000 11.014454 9.611018 0.388308 -7.288875 -27.004045 -3.195377 -13.126462 -7.044120 8.388231 0.950868 -6.317501 -4.998596 0.000000 0.000000 0.000000 0.000000 0.000000 0.000000 1.764185 -3.843361 31.401787 -1.263961 3.592112 -1.844174 2.754237 -0.227710 6.161157 0.000000 0.000000 0.000000 0.214594 -6.159285 30.536726 3.554421 4.793536 -0.465429 0.389810 -0.275070 5.364133 0.000000 0.000000 0.000000
-99.010440 74.956432 323.741138 -0.497947 2.426512 -31.659681 0.410407 0.966674 31.653454 0.028916 0.472351 -0.041405 7.213459 4.830616 -2.257460 0.000000 0.000000 0.000000 -0.173928 -1.180372 -0.577921 -2.531577 1.191469 1.600347 -6.801611 6.026796 3.106970 20.675712 -10.008721 -3.438067 0.000000 0.000000 0.000000 0.000000 0.000000 0.000000 12.969507 11.278002 0.139831 -8.554362 -30.892867 -4.191933 -16.441961 -10.144316 10.728486 -0.885685 -9.617754 -5.606588 0.000000 0.000000 0.000000 0.000000 0.000000 0.000000 1.668513 -4.898221 32.407018 -1.957034 3.436622 -1.820206 2.840429 0.404515 6.096014 0.000000 0.000000 0.000000 0.151624 -6.713594 31.484147 2.797517 3.985543 -0.318417 1.003444 2.474119 6.084145 0.000000 0.000000 0.000000
-99.857611 75.220936 323.081455 1.179640 3.032052 -32.423068 0.359845 1.242574 32.422144 -0.115717 0.571805 0.002385 7.566314 5.646678 -2.932625 0.000000 0.000000 0.000000 -0.237540 -1.021122 -1.174324 -2.244443 0.764369 1.931279 -8.724244 6.806647 4.059482 20.459284 -11.383887 -3.843730 0.000000 0.000000 0.000000 0.000000 0.000000 0.000000 12.815668 12.212915 -0.013339 -8.673571 -33.105858 -4.666326 -20.517922 -13.476296 13.114990 -3.179696 -15.420199 -7.314136 0.000000 0.000000 0.000000 0.000000 0.000000 0.000000 1.589941 -6.027855 33.252878 -3.062143 3.104592 -1.789333 2.974078 1.281377 6.514548 0.000000 0.000000 0.000000 -0.269752 -7.549648 32.239792 3.088098 3.204183 -0.001056 0.095504 3.374193 5.672845 0.000000 0.000000 0.000000
-100.774628 75.465690 322.360752 3.459361 3.682880 -33.247728 0.437517 1.402252 33.233743 -0.151430 0.614493 0.087583 8.028233 6.664112 -3.781709 0.000000 0.000000 0.000000 -0.327019 -0.551130 -1.984734 -1.935814 0.074811 2.289628 -11.989761 7.647635 4.987368 21.266569 -11.031990 -4.023023 0.000000 0.000000 0.000000 0.000000 0.000000 0.000000 13.284233 11.825845 -0.266584 -11.195114 -32.135186 -5.221764 -22.967990 -17.191269 13.789773 -2.034718 -17.323194 -10.305965 0.000000 0.000000 0.000000 0.000000 0.000000 0.000000 1.074187 -7.530297 34.133968 -4.013731 2.705880 -1.705052 2.983172 2.156656 6.646603 0.000000 0.000000 0.000000 -1.205024 -8.901392 32.983434 2.123194 2.055540 0.106907 -0.702597 1.964246 4.946412 0.000000 0.000000 0.000000
-101.589932 75.643258 321.744895 5.977891 4.165202 -33.788990 0.531993 1.510590 33.743620 -0.137802 0.605736 0.194655 8.780347 7.696816 -4.686442 0.000000 0.000000 0.000000 -0.374210 0.182559 -2.906048 -1.692992 -0.727631 2.685267 -15.061633 8.892269 6.247879 22.013138 -13.763780 -4.448627 0.000000 0.000000 0.000000 0.000000 0.000000 0.000000 14.268890 10.423324 -0.474912 -11.838545 -29.970932 -5.857572 -22.115351 -18.693977 13.426279 -2.093379 -17.130021 -9.758692 0.000000 0.000000 0.000000 0.000000 0.000000 0.000000 0.268549 -8.762779 34.628312 -5.482437 2.162727 -1.667742 3.347821 2.897582 6.754923 0.000000 0.000000 0.000000 -2.716380 -10.406049 33.337796 2.202704 0.998029 0.353458 -3.429140 -1.951519 3.334202 0.000000 0.000000 0.000000
-102.217039 75.683092 321.366733 8.354323 4.367109 -33.832028 0.594039 1.526309 33.755878 -0.081584 0.560832 0.307808 9.771685 8.689715 -5.557435 0.000000 0.000000 0.000000 -0.179780 1.110637 -3.832594 -2.028286 -1.050265 3.159969 -17.771961 8.540171 6.364047 22.587912 -12.923675 -4.406093 0.000000 0.000000 0.000000 0.000000 0.000000 0.000000 15.361489 9.109479 -0.653856 -13.010088 -28.023761 -6.518284 -12.497926 -14.618223 9.185993 -4.881477 -15.356171 -4.410921 0.000000 0.000000 0.000000 0.000000 0.000000 0.000000 -1.100826 -9.397174 34.401873 -6.864934 1.174446 -1.603945 3.817429 3.510008 6.829770 0.000000 0.000000 0.000000 -4.852924 -11.552507 33.070315 2.925748 -0.495822 0.688202 -7.797631 -7.895975 0.891760 0.000000 0.000000 0.000000
-102.633905 75.597625 321.242411 10.187765 4.303485 -33.499222 0.456993 1.440517 33.398649 -0.009540 0.534352 0.393066 13.731163 8.889551 -5.971341 0.000000 0.000000 0.000000 -0.256680 2.051417 -4.555437 -1.412055 -1.149052 3.513337 -18.650655 5.975423 5.155042 22.804623 -10.019422 -4.289993 0.000000 0.000000 0.000000 0.000000 0.000000 0.000000 16.732878 8.458911 -0.823957 -14.075860 -26.972586 -7.139340 3.228936 -5.387592 0.367269 -11.129497 -18.033867 2.595796 0.000000 0.000000 0.000000 0.000000 0.000000 0.000000 -2.304265 -9.308562 33.747778 -8.539741 0.198792 -1.629926 4.505399 3.891863 7.098182 0.000000 0.000000 0.000000 -6.691062 -12.591959 32.459698 3.696818 -0.989900 0.904033 -13.723502 -16.300098 -2.962371 0.000000 0.000000 0.000000
-102.820130 75.422714 321.360942 11.731962 4.011749 -33.318912 0.670100 1.365168 33.263031 0.226173 0.447122 0.515055 15.760829 9.103587 -6.371206 0.000000 0.000000 0.000000 -0.665345 2.993284 -5.196967 -1.461669 -0.869650 3.736485 -16.469522 2.166529 3.632093 20.685699 -4.572665 -4.584937 0.000000 0.000000 0.000000 0.000000 0.000000 0.000000 17.863458 8.389018 -1.235165 -15.459341 -26.596921 -7.708006 17.274883 3.760999 -9.916891 -14.833668 -21.428693 6.703443 0.000000 0.000000 0.000000 0.000000 0.000000 0.000000 -3.418597 -8.928893 33.272687 -10.305121 -0.498457 -1.775797 5.375968 3.965160 7.345313 0.000000 0.000000 0.000000 -7.881948 -13.497714 32.143276 3.432705 -0.424704 0.836522 -23.981801 -29.520345 -11.401016 0.000000 0.000000 0.000000
-103.001659 75.287948 321.504944 13.266759 3.723612 -33.511775 0.947658 1.309467 33.520177 0.287758 0.340608 0.623795 16.947910 9.276352 -6.744994 0.000000 0.000000 0.000000 -1.048897 4.083137 -5.883197 -0.837709 -1.469054 3.904792 -14.936900 -0.248434 3.087928 18.408851 0.444999 -5.005985 0.000000 0.000000 0.000000 0.000000 0.000000 0.000000 19.356945 8.224464 -1.635537 -17.240345 -26.458609 -8.265030 23.004122 9.662298 -15.657527 -13.906594 -23.594245 7.435834 0.000000 0.000000 0.000000 0.000000 0.000000 0.000000 -4.429978 -8.541327 33.171200 -12.144681 -1.214353 -1.959651 6.294693 4.069702 7.575690 0.000000 0.000000 0.000000 -8.897745 -14.252674 32.229395 3.027691 0.222007 0.753038 -30.803367 -35.938577 -17.467337 0.000000 0.000000 0.000000
-103.005167 75.188998 321.887741 14.554115 3.217283 -34.316924 1.164609 1.233090 34.427166 0.476369 0.243005 0.737032 16.719772 9.326457 -6.945331 0.000000 0.000000 0.000000 -1.896948 5.227414 -6.435215 0.087697 -1.825958 4.006388 -14.805672 -4.801897 1.031848 15.983850 7.100452 -4.077689 0.000000 0.000000 0.000000 0.000000 0.000000 0.000000 21.202844 8.250556 -2.144310 -19.215123 -25.879691 -8.863098 20.674701 9.462656 -14.138383 -11.042862 -18.967986 5.191867 0.000000 0.000000 0.000000 0.000000 0.000000 0.000000 -5.483968 -8.115642 33.718975 -13.682782 -1.612828 -2.212507 7.345210 3.843888 7.285121 0.000000 0.000000 0.000000 -10.015353 -14.700722 32.932125 3.086475 0.859719 0.680746 -31.240903 -36.456003 -18.498603 0.000000 0.000000 0.000000
-103.003863 75.122407 322.456567 15.408046 2.547430 -35.376751 1.323344 1.196137 35.611747 0.694945 0.183204 0.825905 15.835800 9.162735 -6.874944 0.000000 0.000000 0.000000 -3.055626 6.166641 -6.704204 1.739186 -2.330269 3.929396 -16.215566 -8.220431 -0.821922 16.068855 10.683937 -3.165418 0.000000 0.000000 0.000000 0.000000 0.000000 0.000000 22.732935 8.449045 -2.688210 -20.686074 -25.884271 -9.286984 17.194402 12.074419 -12.800153 -6.831594 -18.520084 3.333931 0.000000 0.000000 0.000000 0.000000 0.000000 0.000000 -6.206552 -7.392455 34.601604 -15.294173 -1.709376 -2.530009 8.508248 3.363331 6.876580 0.000000 0.000000 0.000000 -10.884049 -14.607452 33.969615 3.195560 1.359083 0.615733 -24.869158 -31.333855 -13.516637 0.000000 0.000000 0.000000
